<svg xmlns="http://www.w3.org/2000/svg" viewBox="0 0 100 100">
  <circle cx="50" cy="50" r="45" fill="#FF9933" stroke="#138808" stroke-width="3"/>
  <circle cx="50" cy="50" r="10" fill="#06038D"/>
  <g stroke="#06038D" stroke-width="3">
    <line x1="50" y1="50" x2="50" y2="15"/>
    <line x1="50" y1="50" x2="50" y2="15" transform="rotate(30 50 50)"/>
    <line x1="50" y1="50" x2="50" y2="15" transform="rotate(60 50 50)"/>
    <line x1="50" y1="50" x2="50" y2="15" transform="rotate(90 50 50)"/>
    <line x1="50" y1="50" x2="50" y2="15" transform="rotate(120 50 50)"/>
    <line x1="50" y1="50" x2="50" y2="15" transform="rotate(150 50 50)"/>
    <line x1="50" y1="50" x2="50" y2="15" transform="rotate(180 50 50)"/>
    <line x1="50" y1="50" x2="50" y2="15" transform="rotate(210 50 50)"/>
    <line x1="50" y1="50" x2="50" y2="15" transform="rotate(240 50 50)"/>
    <line x1="50" y1="50" x2="50" y2="15" transform="rotate(270 50 50)"/>
    <line x1="50" y1="50" x2="50" y2="15" transform="rotate(300 50 50)"/>
    <line x1="50" y1="50" x2="50" y2="15" transform="rotate(330 50 50)"/>
  </g>
</svg>

